<svg xmlns:dc="http://purl.org/dc/elements/1.1/" xmlns:cc="http://creativecommons.org/ns#" xmlns:rdf="http://www.w3.org/1999/02/22-rdf-syntax-ns#" xmlns:svg="http://www.w3.org/2000/svg" xmlns="http://www.w3.org/2000/svg" version="1.1" viewBox="0 0 100 125" x="0px" y="0px"><g transform="translate(0,-952.36216)"><path style="color:#18ded2;font-style:normal;font-variant:normal;font-weight:normal;font-stretch:normal;font-size:medium;line-height:normal;font-family:sans-serif;text-indent:0;text-align:start;text-decoration:none;text-decoration-line:none;text-decoration-style:solid;text-decoration-color:#18ded2;letter-spacing:normal;word-spacing:normal;text-transform:none;direction:ltr;block-progression:tb;writing-mode:lr-tb;baseline-shift:baseline;text-anchor:start;white-space:normal;clip-rule:nonzero;display:inline;overflow:visible;visibility:visible;opacity:1;isolation:auto;mix-blend-mode:normal;color-interpolation:sRGB;color-interpolation-filters:linearRGB;solid-color:#18ded2;solid-opacity:1;fill:#18ded2;fill-opacity:1;fill-rule:evenodd;stroke:none;stroke-width:5;stroke-linecap:round;stroke-linejoin:round;stroke-miterlimit:4;stroke-dasharray:none;stroke-dashoffset:0;stroke-opacity:1;marker:none;color-rendering:auto;image-rendering:auto;shape-rendering:auto;text-rendering:auto;enable-background:accumulate" d="m 10,959.86212 a 2.50025,2.50025 0 0 0 -2.5,2.5 l 0,20 a 2.50025,2.50025 0 0 0 2.5,2.5 l 20,0 a 2.50025,2.50025 0 0 0 2.5,-2.5 l 0,-20 a 2.50025,2.50025 0 0 0 -2.5,-2.5 l -20,0 z m 30,0 a 2.50025,2.50025 0 0 0 -2.5,2.5 l 0,20 a 2.50025,2.50025 0 0 0 2.5,2.5 l 20,0 a 2.50025,2.50025 0 0 0 2.5,-2.5 l 0,-20 a 2.50025,2.50025 0 0 0 -2.5,-2.5 l -20,0 z m 30,0 a 2.50025,2.50025 0 0 0 -2.5,2.5 l 0,20 a 2.50025,2.50025 0 0 0 2.5,2.5 l 20,0 a 2.50025,2.50025 0 0 0 2.5,-2.5 l 0,-20 a 2.50025,2.50025 0 0 0 -2.5,-2.5 l -20,0 z m -57.5,5 15,0 0,15 -15,0 0,-15 z m 30,0 15,0 0,15 -15,0 0,-15 z m 30,0 15,0 0,15 -15,0 0,-15 z m -62.5,25 a 2.50025,2.50025 0 0 0 -2.5,2.49997 l 0,20.00011 a 2.50025,2.50025 0 0 0 2.5,2.5 l 20,0 a 2.50025,2.50025 0 0 0 2.5,-2.5 l 0,-20.00011 A 2.50025,2.50025 0 0 0 30,989.86212 l -20,0 z m 30,0 a 2.50025,2.50025 0 0 0 -2.5,2.49997 l 0,20.00011 a 2.50025,2.50025 0 0 0 2.5,2.5 l 20,0 a 2.50025,2.50025 0 0 0 2.5,-2.5 l 0,-20.00011 A 2.50025,2.50025 0 0 0 60,989.86212 l -20,0 z m 30,0 a 2.50025,2.50025 0 0 0 -2.5,2.49997 l 0,20.00011 a 2.50025,2.50025 0 0 0 2.5,2.5 l 20,0 a 2.50025,2.50025 0 0 0 2.5,-2.5 l 0,-20.00011 A 2.50025,2.50025 0 0 0 90,989.86212 l -20,0 z m -57.5,4.99997 15,0 0,15.00011 -15,0 0,-15.00011 z m 30,0 15,0 0,15.00011 -15,0 0,-15.00011 z m 30,0 15,0 0,15.00011 -15,0 0,-15.00011 z M 10,1019.8622 a 2.50025,2.50025 0 0 0 -2.5,2.5 l 0,20 a 2.50025,2.50025 0 0 0 2.5,2.5 l 20,0 a 2.50025,2.50025 0 0 0 2.5,-2.5 l 0,-20 a 2.50025,2.50025 0 0 0 -2.5,-2.5 l -20,0 z m 30,0 a 2.50025,2.50025 0 0 0 -2.5,2.5 l 0,20 a 2.50025,2.50025 0 0 0 2.5,2.5 l 20,0 a 2.50025,2.50025 0 0 0 2.5,-2.5 l 0,-20 a 2.50025,2.50025 0 0 0 -2.5,-2.5 l -20,0 z m 30,0 a 2.50025,2.50025 0 0 0 -2.5,2.5 l 0,20 a 2.50025,2.50025 0 0 0 2.5,2.5 l 20,0 a 2.50025,2.50025 0 0 0 2.5,-2.5 l 0,-20 a 2.50025,2.50025 0 0 0 -2.5,-2.5 l -20,0 z m -57.5,5 15,0 0,15 -15,0 0,-15 z m 30,0 15,0 0,15 -15,0 0,-15 z m 30,0 15,0 0,15 -15,0 0,-15 z"/></g></svg>